<svg id="Layer_1" data-name="Layer 1" xmlns="http://www.w3.org/2000/svg" viewBox="0 0 302.24 61.37"><defs><style>.cls-1{fill:#fff;}</style></defs><title>ESRGAN</title><path class="cls-1" d="M34.3,1.31V8.53H7.55V27.16H31.67v7.05H7.55V52.84H34.3v7.22H0V1.31Z"/><path class="cls-1" d="M75.07,56.78a21.82,21.82,0,0,1-13.95,4.59A20.41,20.41,0,0,1,48.24,57.1a21.86,21.86,0,0,1-7.71-11.65l7.22-3c2,6.89,7.22,11.65,13.54,11.65,6.89,0,11.73-3.86,11.73-9.76a8.43,8.43,0,0,0-2.71-6.32c-1.72-1.72-4.84-3.36-9.52-4.92-4.67-1.73-7.63-2.88-8.78-3.45q-9.34-4.8-9.35-14A14.23,14.23,0,0,1,47.83,4.59,19.07,19.07,0,0,1,60.71,0,19.72,19.72,0,0,1,72.36,3.45a15.92,15.92,0,0,1,6.56,8.45l-7,2.95c-1.31-4.35-5.42-7.63-11-7.63a11.52,11.52,0,0,0-7.47,2.46,7.15,7.15,0,0,0-3,6,7,7,0,0,0,2.38,5.25c1.73,1.48,5.58,3.2,11.41,5.25,11.89,4,16.57,9.68,16.57,18.22A15.25,15.25,0,0,1,75.07,56.78Z"/><path class="cls-1" d="M97.38,60.06H89.83V1.31h20a18.19,18.19,0,0,1,13,5.09,16.23,16.23,0,0,1,5.41,12.39,16.27,16.27,0,0,1-4,10.83,17.81,17.81,0,0,1-10,6l-.16.24,16.49,23.88v.33h-9l-15.83-23.8H97.38Zm0-51.53V29.21h12.14a11.12,11.12,0,0,0,7.8-3,9.93,9.93,0,0,0,3.2-7.46,9.76,9.76,0,0,0-3-7.14A9.9,9.9,0,0,0,110,8.53Z"/><path class="cls-1" d="M186.48,52.67c-5.5,5.83-12.64,8.7-21.58,8.7a29.46,29.46,0,0,1-21.66-8.86,29.7,29.7,0,0,1-8.86-21.83,29.69,29.69,0,0,1,8.86-21.82A29.46,29.46,0,0,1,164.9,0c8.62,0,16.74,3.2,21.66,8.78l-5.41,5.41c-3.61-4.35-9.69-7-16.25-7a22.05,22.05,0,0,0-16.24,6.65,23.26,23.26,0,0,0-6.57,16.81,23.27,23.27,0,0,0,6.57,16.82,22.09,22.09,0,0,0,16.24,6.65c5.83,0,10.75-1.64,14.6-4.92a19.59,19.59,0,0,0,6.73-13.54H164.9V28.63h28.47a28.3,28.3,0,0,1,.41,4.43C193.78,41.27,191.32,47.83,186.48,52.67Z"/><path class="cls-1" d="M205.59,60.06h-8.37L219.38,1.31h8.53l22.15,58.75h-8.37L236,44.14h-24.7Zm17.89-49.48-9.6,26.5h19.53l-9.6-26.5Z"/><path class="cls-1" d="M264.5,60.06H257V1.31h9.19L294.69,47H295l-.33-11.32V1.31h7.55V60.06h-7.88L264.5,12.14h-.33l.33,11.32Z"/></svg>