<svg id="Layer_1" data-name="Layer 1" xmlns="http://www.w3.org/2000/svg" viewBox="0 0 321.85 61.37"><defs><style>.cls-1{fill:#fff;}</style></defs><title>GFPGAN</title><path class="cls-1" d="M52.1,52.67c-5.5,5.83-12.64,8.7-21.58,8.7A29.46,29.46,0,0,1,8.86,52.51,29.7,29.7,0,0,1,0,30.68,29.69,29.69,0,0,1,8.86,8.86,29.46,29.46,0,0,1,30.52,0c8.62,0,16.74,3.2,21.66,8.78l-5.41,5.41c-3.61-4.35-9.69-7-16.25-7a22.05,22.05,0,0,0-16.24,6.65A23.26,23.26,0,0,0,7.71,30.68,23.27,23.27,0,0,0,14.28,47.5a22.09,22.09,0,0,0,16.24,6.65c5.83,0,10.75-1.64,14.61-4.92a19.62,19.62,0,0,0,6.72-13.54H30.52V28.63H59a28.3,28.3,0,0,1,.41,4.43C59.4,41.27,56.94,47.83,52.1,52.67Z"/><path class="cls-1" d="M76.13,34.87V60.06H68.59V1.31h34.29V8.53H76.13V27.81h24.13v7.06Z"/><path class="cls-1" d="M119,36.26v23.8h-7.55V1.31h20a18.17,18.17,0,0,1,13,5.09,16.36,16.36,0,0,1,5.42,12.39,16.29,16.29,0,0,1-5.42,12.47,18,18,0,0,1-13,5Zm0-27.73V29h12.63a9.84,9.84,0,0,0,7.47-3,9.8,9.8,0,0,0,3-7.22,9.75,9.75,0,0,0-3-7.14,9.91,9.91,0,0,0-7.47-3.12Z"/><path class="cls-1" d="M206.09,52.67c-5.5,5.83-12.64,8.7-21.58,8.7a29.46,29.46,0,0,1-21.66-8.86A29.7,29.7,0,0,1,154,30.68a29.69,29.69,0,0,1,8.86-21.82A29.46,29.46,0,0,1,184.51,0c8.61,0,16.74,3.2,21.66,8.78l-5.42,5.41c-3.61-4.35-9.68-7-16.24-7a22.07,22.07,0,0,0-16.25,6.65,23.3,23.3,0,0,0-6.56,16.81,23.3,23.3,0,0,0,6.56,16.82,22.11,22.11,0,0,0,16.25,6.65c5.82,0,10.75-1.64,14.6-4.92a19.59,19.59,0,0,0,6.73-13.54H184.51V28.63H213a28.3,28.3,0,0,1,.41,4.43C213.39,41.27,210.93,47.83,206.09,52.67Z"/><path class="cls-1" d="M225.2,60.06h-8.37L239,1.31h8.54l22.15,58.75H261.3l-5.66-15.92h-24.7Zm17.89-49.48-9.6,26.5H253l-9.6-26.5Z"/><path class="cls-1" d="M284.11,60.06h-7.55V1.31h9.19L314.3,47h.33l-.33-11.32V1.31h7.55V60.06H314L284.11,12.14h-.33l.33,11.32Z"/></svg>