<svg id="Layer_1" data-name="Layer 1" xmlns="http://www.w3.org/2000/svg" viewBox="0 0 390.19 61.37"><defs><style>.cls-1{fill:#fff;}</style></defs><title>STYLEGAN</title><path class="cls-1" d="M34.54,56.78a21.8,21.8,0,0,1-13.95,4.59A20.41,20.41,0,0,1,7.71,57.1,21.86,21.86,0,0,1,0,45.45l7.22-3c2,6.89,7.22,11.65,13.54,11.65,6.89,0,11.73-3.86,11.73-9.76a8.43,8.43,0,0,0-2.71-6.32c-1.72-1.72-4.84-3.36-9.51-4.92-4.68-1.73-7.63-2.88-8.78-3.45q-9.36-4.8-9.36-14A14.26,14.26,0,0,1,7.3,4.59,19.09,19.09,0,0,1,20.18,0,19.7,19.7,0,0,1,31.83,3.45,15.94,15.94,0,0,1,38.4,11.9l-7.06,2.95c-1.31-4.35-5.41-7.63-11-7.63a11.52,11.52,0,0,0-7.47,2.46,7.14,7.14,0,0,0-3,6,7,7,0,0,0,2.37,5.25c1.73,1.48,5.58,3.2,11.41,5.25,11.9,4,16.57,9.68,16.57,18.22A15.22,15.22,0,0,1,34.54,56.78Z"/><path class="cls-1" d="M68.51,8.53V60.06H61V8.53H44.55V1.31H84.92V8.53Z"/><path class="cls-1" d="M115.19,32.74V60.06h-7.55V32.74L87.86,1.31h8.87l14.52,23.88h.33L125.77,1.31h8.86Z"/><path class="cls-1" d="M174.5,60.06h-33V1.31h7.55V52.84H174.5Z"/><path class="cls-1" d="M216.67,1.31V8.53H189.92V27.16H214v7.05H189.92V52.84h26.75v7.22h-34.3V1.31Z"/><path class="cls-1" d="M274.43,52.67c-5.5,5.83-12.64,8.7-21.58,8.7a29.46,29.46,0,0,1-21.66-8.86,29.7,29.7,0,0,1-8.86-21.83,29.69,29.69,0,0,1,8.86-21.82A29.46,29.46,0,0,1,252.85,0c8.61,0,16.74,3.2,21.66,8.78l-5.42,5.41c-3.61-4.35-9.68-7-16.24-7a22.07,22.07,0,0,0-16.25,6.65A23.25,23.25,0,0,0,230,30.68,23.26,23.26,0,0,0,236.6,47.5a22.11,22.11,0,0,0,16.25,6.65c5.82,0,10.75-1.64,14.6-4.92a19.59,19.59,0,0,0,6.73-13.54H252.85V28.63h28.47a29.56,29.56,0,0,1,.41,4.43C281.73,41.27,279.27,47.83,274.43,52.67Z"/><path class="cls-1" d="M293.54,60.06h-8.37L307.32,1.31h8.54L338,60.06h-8.37L324,44.14h-24.7Zm17.88-49.48-9.59,26.5h19.52l-9.6-26.5Z"/><path class="cls-1" d="M352.44,60.06H344.9V1.31h9.18L382.64,47H383l-.32-11.32V1.31h7.55V60.06h-7.88L352.44,12.14h-.32l.32,11.32Z"/></svg>